# xmcd
#
# Track frame offsets: 
#        150
#        14667
#        28478
#        43213
#        58020
#        72440
#        87068
#        100875
#        114589
#        127316
#        140404
#        155094
#        168398
#        181755
#        194702
#        207793
#        221095
#        235161
#
# Disc length: 3310 seconds
#
# Revision: 2
# Processed by: cddbd v1.5.2PL0 Copyright (c) Steve Scherf et al.
# Submitted via: ExactAudioCopy v1.0b1
#
DISCID=180cec12
DTITLE=Blind Willie Mctell - The Legend Of Blind Willie McTell
DYEAR=1900
DGENRE=Blues
TTITLE0=Broke Down Engine
TTITLE1=Georgia Rag
TTITLE2=Rough Alley Blues
TTITLE3=Low Rider's Blues
TTITLE4=Low Down Blues
TTITLE5=Lonesome Day Blues
TTITLE6=Rollin' Mama Blues
TTITLE7=It's Your Time To Worry
TTITLE8=You Was Born To Die
TTITLE9=Don't You See How This World Made A Change
TTITLE10=Savannah Mama
TTITLE11=Lord Have Mercy If You Please
TTITLE12=My Baby's Gone
TTITLE13=Broke Down Engine No.2
TTITLE14=Love Makin' Mama
TTITLE15=Death Room Blues
TTITLE16=Death Cell Blues
TTITLE17=Lord, Send Me An Angel
EXTD=
EXTT0=
EXTT1=
EXTT2=
EXTT3=
EXTT4=
EXTT5=
EXTT6=
EXTT7=
EXTT8=
EXTT9=
EXTT10=
EXTT11=
EXTT12=
EXTT13=
EXTT14=
EXTT15=
EXTT16=
EXTT17=
PLAYORDER=
